<svg xmlns="http://www.w3.org/2000/svg" id="Layer_1" data-name="Layer 1" viewBox="0 0 681.4 283"><defs><style>      .cls-1 {        fill: #00223c;      }      .cls-2 {        fill: #00223c;      }    </style></defs><g><path class="cls-1" d="M10.11,280.34h-3.72v-24.1h6.13l8.37,18.42,8.4-18.42h6.06v24.1h-3.72v-20.39l-9.37,20.39h-2.82l-9.33-20.35v20.35Z"></path><path class="cls-1" d="M42.37,280.34h-4.13l11.09-24.1h5.34l11.09,24.1h-4.27l-2.38-5.2h-14.36l-2.38,5.2ZM51.91,259.5l-5.44,11.91h10.92l-5.48-11.91Z"></path><path class="cls-1" d="M87.51,256.23h3.79v24.1h-2.72l-16.15-19.32v19.32h-3.79v-24.1h4.65l14.22,17.01v-17.01Z"></path><path class="cls-1" d="M98.22,256.23h3.86v12.43c0,1.68.1,2.92.31,3.72.39,1.54,1.11,2.7,2.17,3.48s2.64,1.17,4.75,1.17,3.7-.38,4.77-1.15,1.8-1.92,2.19-3.46c.21-.92.31-2.17.31-3.75v-12.43h3.86v12.57c0,2.2-.23,4.01-.69,5.41-1.47,4.38-4.95,6.58-10.43,6.58s-9.03-2.23-10.5-6.68c-.39-1.26-.59-3.03-.59-5.3v-12.57Z"></path><path class="cls-1" d="M127.36,256.23h18.73v3.68h-14.94v6.78h13.02v3.68h-13.02v9.95h-3.79v-24.1Z"></path><path class="cls-1" d="M148.71,280.34h-4.13l11.09-24.1h5.34l11.09,24.1h-4.27l-2.38-5.2h-14.36l-2.38,5.2ZM158.24,259.5l-5.44,11.91h10.92l-5.48-11.91Z"></path><path class="cls-1" d="M197.19,262.29l-3.31,1.89c-.73-1.45-1.78-2.59-3.13-3.44-1.36-.85-3-1.27-4.92-1.27-2.71,0-4.91.84-6.59,2.51-1.69,1.68-2.53,3.76-2.53,6.27s.83,4.63,2.5,6.32c1.67,1.69,3.87,2.53,6.63,2.53,3.9,0,6.66-1.73,8.26-5.2l3.34,1.76c-.92,2.23-2.42,3.97-4.51,5.23s-4.46,1.89-7.13,1.89c-3.74,0-6.83-1.18-9.26-3.53-2.43-2.35-3.65-5.35-3.65-9s1.22-6.53,3.65-8.9c2.43-2.38,5.52-3.56,9.26-3.56,2.59,0,4.89.58,6.89,1.74,2,1.16,3.5,2.75,4.51,4.77Z"></path><path class="cls-1" d="M207.76,259.99h-9.09v-3.75h22.04v3.75h-9.09v20.35h-3.86v-20.35Z"></path><path class="cls-1" d="M223.98,256.23h3.86v12.43c0,1.68.1,2.92.31,3.72.39,1.54,1.11,2.7,2.17,3.48s2.64,1.17,4.75,1.17,3.7-.38,4.77-1.15,1.8-1.92,2.19-3.46c.21-.92.31-2.17.31-3.75v-12.43h3.86v12.57c0,2.2-.23,4.01-.69,5.41-1.47,4.38-4.95,6.58-10.43,6.58s-9.03-2.23-10.5-6.68c-.39-1.26-.59-3.03-.59-5.3v-12.57Z"></path><path class="cls-1" d="M253.11,256.23h12.53c2.59,0,4.64.56,6.13,1.69.96.74,1.72,1.65,2.25,2.75.54,1.1.81,2.26.81,3.48,0,1.61-.43,3.12-1.29,4.53-.86,1.41-2.22,2.43-4.08,3.05l6.16,8.61h-4.68l-5.68-7.95h-8.4v7.95h-3.75v-24.1ZM256.86,268.77h8.71c1.12,0,2.1-.16,2.93-.48,1.72-.71,2.58-2.08,2.58-4.1,0-1.81-.83-3.08-2.48-3.79-.83-.34-1.86-.52-3.1-.52h-8.64v8.88Z"></path><path class="cls-1" d="M280.42,256.23h4.06v24.1h-4.06v-24.1Z"></path><path class="cls-1" d="M310.51,256.23h3.79v24.1h-2.72l-16.15-19.32v19.32h-3.79v-24.1h4.65l14.22,17.01v-17.01Z"></path><path class="cls-1" d="M323.7,268.25c0,2.75.92,4.92,2.75,6.49,1.84,1.57,4.17,2.36,6.99,2.36s5.13-.72,6.92-2.17v-3.48h-8.85v-3.55h12.53v9.09c-3.01,2.53-6.55,3.79-10.64,3.79s-7.19-1.15-9.73-3.44c-2.54-2.29-3.8-5.33-3.8-9.09,0-3.56,1.23-6.53,3.68-8.9,2.46-2.38,5.56-3.56,9.3-3.56,2.27,0,4.38.46,6.32,1.39,1.94.93,3.5,2.35,4.67,4.25l-3.24,1.96c-.8-1.29-1.88-2.26-3.24-2.93-1.36-.67-2.84-1-4.44-1-2.73,0-4.95.84-6.66,2.51-1.71,1.68-2.57,3.76-2.57,6.27Z"></path><path class="cls-1" d="M361.13,256.23h12.36c1.61,0,2.97.18,4.1.55,3.31,1.15,4.96,3.59,4.96,7.33,0,3.26-1.39,5.49-4.17,6.68-1.33.6-2.94.89-4.82.89h-8.64v8.64h-3.79v-24.1ZM364.92,259.88v8.2h8.3c1.22,0,2.12-.1,2.72-.31,1.88-.53,2.82-1.81,2.82-3.86s-.9-3.27-2.69-3.75c-.71-.18-1.74-.28-3.1-.28h-8.06Z"></path><path class="cls-1" d="M387.03,256.23h12.53c2.59,0,4.64.56,6.13,1.69.96.74,1.72,1.65,2.25,2.75.54,1.1.81,2.26.81,3.48,0,1.61-.43,3.12-1.29,4.53-.86,1.41-2.22,2.43-4.08,3.05l6.16,8.61h-4.68l-5.68-7.95h-8.4v7.95h-3.75v-24.1ZM390.78,268.77h8.71c1.12,0,2.1-.16,2.93-.48,1.72-.71,2.58-2.08,2.58-4.1,0-1.81-.83-3.08-2.48-3.79-.83-.34-1.86-.52-3.1-.52h-8.64v8.88Z"></path><path class="cls-1" d="M412.4,268.25c0-3.58,1.22-6.55,3.65-8.92,2.43-2.36,5.52-3.55,9.26-3.55s6.82,1.18,9.25,3.53c2.42,2.35,3.63,5.33,3.63,8.94s-1.22,6.59-3.65,8.97c-2.43,2.38-5.52,3.56-9.26,3.56s-6.8-1.18-9.23-3.55c-2.43-2.36-3.65-5.36-3.65-8.99ZM416.23,268.25c0,2.53.82,4.63,2.46,6.32s3.85,2.53,6.63,2.53,4.9-.84,6.56-2.53,2.5-3.79,2.5-6.32-.83-4.56-2.5-6.25c-1.66-1.69-3.86-2.53-6.59-2.53s-4.9.84-6.56,2.53c-1.66,1.69-2.5,3.77-2.5,6.25Z"></path><path class="cls-1" d="M443.77,256.23h18.73v3.68h-14.94v6.78h13.02v3.68h-13.02v9.95h-3.79v-24.1Z"></path><path class="cls-1" d="M485.54,256.23v3.65h-15.29v6.23h13.39v3.58h-13.39v7.03h15.77v3.62h-19.56v-24.1h19.08Z"></path><path class="cls-1" d="M498.97,265.81l3.24.31c5.67.53,8.5,2.84,8.5,6.92,0,2.48-.95,4.39-2.86,5.73-1.91,1.34-4.4,2.01-7.47,2.01-4.84,0-8.52-1.39-11.02-4.17l3-2.51c1.63,2.04,4.38,3.06,8.26,3.06,1.97,0,3.51-.36,4.6-1.08,1.09-.72,1.64-1.67,1.64-2.84,0-.64-.15-1.18-.45-1.62-.3-.44-.75-.76-1.34-.98-.6-.22-1.16-.38-1.69-.48-.53-.1-1.21-.19-2.03-.26l-3.24-.31c-5.37-.53-8.06-2.77-8.06-6.71,0-2.16.88-3.88,2.65-5.17,1.77-1.29,4.25-1.93,7.44-1.93,4.22,0,7.55,1.24,9.99,3.72l-2.89,2.51c-1.77-1.72-4.21-2.58-7.33-2.58-2.02,0-3.52.3-4.51.9-.99.6-1.48,1.37-1.48,2.31s.36,1.63,1.07,2.13c.71.5,2.04.85,3.99,1.03Z"></path><path class="cls-1" d="M523.59,265.81l3.24.31c5.67.53,8.5,2.84,8.5,6.92,0,2.48-.95,4.39-2.86,5.73-1.91,1.34-4.4,2.01-7.47,2.01-4.84,0-8.52-1.39-11.02-4.17l3-2.51c1.63,2.04,4.38,3.06,8.26,3.06,1.97,0,3.51-.36,4.6-1.08,1.09-.72,1.64-1.67,1.64-2.84,0-.64-.15-1.18-.45-1.62-.3-.44-.75-.76-1.34-.98-.6-.22-1.16-.38-1.69-.48-.53-.1-1.21-.19-2.03-.26l-3.24-.31c-5.37-.53-8.06-2.77-8.06-6.71,0-2.16.88-3.88,2.65-5.17,1.77-1.29,4.25-1.93,7.44-1.93,4.22,0,7.55,1.24,9.99,3.72l-2.89,2.51c-1.77-1.72-4.21-2.58-7.33-2.58-2.02,0-3.52.3-4.51.9-.99.6-1.48,1.37-1.48,2.31s.36,1.63,1.07,2.13c.71.5,2.04.85,3.99,1.03Z"></path><path class="cls-1" d="M540.43,256.23h4.06v24.1h-4.06v-24.1Z"></path><path class="cls-1" d="M550.07,268.25c0-3.58,1.22-6.55,3.65-8.92,2.43-2.36,5.52-3.55,9.26-3.55s6.82,1.18,9.25,3.53c2.42,2.35,3.63,5.33,3.63,8.94s-1.22,6.59-3.65,8.97c-2.43,2.38-5.52,3.56-9.26,3.56s-6.8-1.18-9.23-3.55c-2.43-2.36-3.65-5.36-3.65-8.99ZM553.9,268.25c0,2.53.82,4.63,2.46,6.32s3.85,2.53,6.63,2.53,4.9-.84,6.56-2.53,2.5-3.79,2.5-6.32-.83-4.56-2.5-6.25c-1.66-1.69-3.86-2.53-6.59-2.53s-4.9.84-6.56,2.53c-1.66,1.69-2.5,3.77-2.5,6.25Z"></path><path class="cls-1" d="M600.31,256.23h3.79v24.1h-2.72l-16.15-19.32v19.32h-3.79v-24.1h4.65l14.22,17.01v-17.01Z"></path><path class="cls-1" d="M611.13,280.34h-4.13l11.09-24.1h5.34l11.09,24.1h-4.27l-2.38-5.2h-14.36l-2.38,5.2ZM620.66,259.5l-5.44,11.91h10.92l-5.48-11.91Z"></path><path class="cls-1" d="M637.4,256.23h3.86v20.35h14.26v3.75h-18.11v-24.1Z"></path><path class="cls-1" d="M666.32,265.81l3.24.31c5.67.53,8.5,2.84,8.5,6.92,0,2.48-.95,4.39-2.86,5.73-1.91,1.34-4.4,2.01-7.47,2.01-4.84,0-8.52-1.39-11.02-4.17l3-2.51c1.63,2.04,4.38,3.06,8.26,3.06,1.97,0,3.51-.36,4.6-1.08,1.09-.72,1.64-1.67,1.64-2.84,0-.64-.15-1.18-.45-1.62-.3-.44-.75-.76-1.34-.98-.6-.22-1.16-.38-1.69-.48-.53-.1-1.21-.19-2.03-.26l-3.24-.31c-5.37-.53-8.06-2.77-8.06-6.71,0-2.16.88-3.88,2.65-5.17,1.77-1.29,4.25-1.93,7.44-1.93,4.22,0,7.55,1.24,9.99,3.72l-2.89,2.51c-1.77-1.72-4.21-2.58-7.33-2.58-2.02,0-3.52.3-4.51.9-.99.6-1.48,1.37-1.48,2.31s.36,1.63,1.07,2.13c.71.5,2.04.85,3.99,1.03Z"></path></g><rect class="cls-2" x="4.38" y="234.39" width="666.8" height="4"></rect><g><path class="cls-1" d="M3.33,4.43h61.13c7.95,0,14.7.91,20.26,2.72,16.35,5.68,24.52,17.77,24.52,36.27,0,16.12-6.87,27.13-20.61,33.04-6.59,2.95-14.53,4.43-23.84,4.43H22.07v42.74H3.33V4.43ZM22.07,22.48v40.53h41.04c6.02,0,10.5-.51,13.45-1.53,9.31-2.61,13.96-8.97,13.96-19.07s-4.43-16.18-13.28-18.56c-3.52-.91-8.63-1.36-15.33-1.36H22.07Z"></path><path class="cls-1" d="M219.94,123.63v-52.28h-70.5v52.28h-19.07V4.43h19.07v48.7h70.5V4.43h19.07v119.2h-19.07Z"></path><path class="cls-1" d="M273.41,4.43h20.09v119.2h-20.09V4.43Z"></path><path class="cls-1" d="M327.9,4.43h61.13c7.95,0,14.7.91,20.27,2.72,16.35,5.68,24.52,17.77,24.52,36.27,0,16.12-6.87,27.13-20.61,33.04-6.59,2.95-14.53,4.43-23.84,4.43h-42.74v42.74h-18.73V4.43ZM346.64,22.48v40.53h41.04c6.02,0,10.5-.51,13.45-1.53,9.31-2.61,13.96-8.97,13.96-19.07s-4.43-16.18-13.28-18.56c-3.52-.91-8.63-1.36-15.33-1.36h-39.85Z"></path><path class="cls-1" d="M454.94,4.43h61.13c7.95,0,14.7.91,20.26,2.72,16.35,5.68,24.52,17.77,24.52,36.27,0,16.12-6.87,27.13-20.61,33.04-6.59,2.95-14.53,4.43-23.84,4.43h-42.74v42.74h-18.73V4.43ZM473.67,22.48v40.53h41.04c6.02,0,10.5-.51,13.45-1.53,9.31-2.61,13.96-8.97,13.96-19.07s-4.43-16.18-13.28-18.56c-3.52-.91-8.63-1.36-15.33-1.36h-39.85Z"></path><path class="cls-1" d="M619.61,51.77l16.01,1.53c28.04,2.61,42.06,14.02,42.06,34.23,0,12.26-4.71,21.71-14.13,28.35-9.42,6.64-21.74,9.96-36.95,9.96-23.96,0-42.12-6.87-54.49-20.61l14.81-12.43c8.06,10.11,21.68,15.16,40.87,15.16,9.76,0,17.34-1.79,22.73-5.36,5.39-3.58,8.09-8.26,8.09-14.05,0-3.18-.74-5.85-2.21-8-1.48-2.16-3.69-3.77-6.64-4.85-2.96-1.08-5.73-1.87-8.35-2.38-2.61-.51-5.96-.94-10.05-1.28l-16.01-1.53c-26.57-2.61-39.85-13.68-39.85-33.21,0-10.67,4.37-19.18,13.11-25.54,8.74-6.36,21-9.54,36.78-9.54,20.89,0,37.35,6.13,49.38,18.39l-14.3,12.43c-8.74-8.51-20.83-12.77-36.27-12.77-9.99,0-17.43,1.48-22.31,4.43-4.88,2.95-7.32,6.75-7.32,11.41s1.76,8.06,5.28,10.56c3.52,2.5,10.1,4.2,19.75,5.11Z"></path></g><g><path class="cls-1" d="M17.25,179.09c0,7.47,2.49,13.34,7.47,17.6,4.98,4.26,11.3,6.4,18.95,6.4s13.91-1.96,18.77-5.88v-9.43h-24v-9.62h33.99v24.65c-8.16,6.85-17.77,10.27-28.85,10.27s-19.5-3.11-26.38-9.34c-6.88-6.22-10.32-14.44-10.32-24.65,0-9.65,3.33-17.69,9.99-24.14,6.66-6.44,15.06-9.66,25.21-9.66,6.16,0,11.87,1.26,17.13,3.78,5.26,2.52,9.48,6.37,12.65,11.53l-8.78,5.32c-2.18-3.49-5.1-6.13-8.78-7.94-3.67-1.8-7.69-2.71-12.04-2.71-7.41,0-13.43,2.27-18.07,6.82-4.64,4.54-6.96,10.21-6.96,16.99Z"></path><path class="cls-1" d="M139.38,146.5h10.46v55.18h38.65v10.18h-49.11v-65.36Z"></path><path class="cls-1" d="M242.36,179.09c0-9.71,3.3-17.77,9.9-24.18,6.6-6.41,14.97-9.62,25.12-9.62s18.5,3.19,25.07,9.57c6.57,6.38,9.85,14.46,9.85,24.23s-3.3,17.88-9.9,24.32c-6.6,6.44-14.97,9.66-25.12,9.66s-18.43-3.21-25.02-9.62c-6.6-6.41-9.9-14.53-9.9-24.37ZM252.73,179.09c0,6.85,2.22,12.56,6.68,17.13,4.45,4.58,10.44,6.86,17.97,6.86s13.27-2.29,17.79-6.86c4.51-4.58,6.77-10.29,6.77-17.13s-2.26-12.37-6.77-16.95c-4.51-4.58-10.47-6.86-17.88-6.86s-13.27,2.29-17.79,6.86c-4.51,4.58-6.77,10.22-6.77,16.95Z"></path><path class="cls-1" d="M377.84,211.86v-65.36h32.49c4.54,0,8.4.75,11.58,2.24,6.41,2.86,9.62,8.06,9.62,15.59,0,4.98-1.9,9.15-5.7,12.51,2.55,1.31,4.73,3.28,6.54,5.93,1.8,2.65,2.71,5.93,2.71,9.85,0,4.54-1.15,8.31-3.46,11.3-2.3,2.99-5.42,5.14-9.34,6.44-2.68.87-6.04,1.37-10.08,1.49h-34.36ZM387.93,156.3v17.37h22.13c3.8,0,6.58-.7,8.36-2.1,1.77-1.4,2.66-3.59,2.66-6.58,0-5.79-3.8-8.68-11.39-8.68h-21.75ZM412.11,202.05c8.34,0,12.51-3.11,12.51-9.34,0-3.36-1.04-5.74-3.13-7.14-2.09-1.4-5.12-2.1-9.1-2.1h-24.46v18.58h24.18Z"></path><path class="cls-1" d="M500.34,211.86h-11.2l30.07-65.36h14.47l30.06,65.36h-11.58l-6.44-14.1h-38.94l-6.44,14.1ZM526.2,155.37l-14.75,32.31h29.6l-14.85-32.31Z"></path><path class="cls-1" d="M622,146.5h10.46v55.18h38.66v10.18h-49.11v-65.36Z"></path></g></svg>